<svg width="135" height="69" viewBox="0 0 135 69" fill="none" xmlns="http://www.w3.org/2000/svg">
<path d="M96.8394 0.88916H0L0 67.1838H96.8394C107.093 67.166 116.369 63.4667 123.099 57.473C129.838 51.4794 134.002 43.1915 134.002 34.0409C134.002 15.7488 117.367 0.915838 96.8394 0.88916Z" fill="#FDE198"/>
<path d="M134.001 34.0409C134.001 43.1915 129.838 51.4794 123.098 57.473C116.369 63.4667 107.093 67.166 96.8391 67.1838H96.7792C76.2511 67.1571 59.627 52.3242 59.627 34.0409C59.627 15.7488 76.2511 0.915838 96.7792 0.88916H96.8391C117.367 0.915838 134.001 15.7488 134.001 34.0409Z" fill="#FDE198"/>
<path d="M96.8395 68.0732C75.7423 68.0465 58.6289 52.7778 58.6289 34.041C58.6289 15.2953 75.7423 0.0266779 96.7796 0C117.887 0.0266779 135 15.2953 135 34.041C135 43.1382 131.026 51.684 123.808 58.1045C116.609 64.5161 107.034 68.0554 96.8395 68.0732ZM96.8395 1.77853C76.8506 1.80521 60.6258 16.2735 60.6258 34.041C60.6258 51.7996 76.8406 66.268 96.7796 66.2947C106.494 66.2769 115.57 62.9243 122.39 56.8418C129.229 50.7592 133.003 42.658 133.003 34.041C133.003 16.2824 116.778 1.80521 96.8395 1.77853Z" fill="white" fill-opacity="0.4"/>
</svg>
