<svg width="135" height="69" viewBox="0 0 135 69" fill="none" xmlns="http://www.w3.org/2000/svg">
<path d="M38.1606 67.1841L135 67.1841V0.889427L38.1606 0.889427C27.9066 0.907211 18.631 4.60656 11.9015 10.6002C5.16197 16.5938 0.998444 24.8818 0.998444 34.0323C0.998444 52.3245 17.6326 67.1574 38.1606 67.1841Z" fill="#FDE198"/>
<path d="M0.998741 34.0323C0.998741 24.8818 5.16227 16.5938 11.9018 10.6002C18.6313 4.60656 27.9069 0.907211 38.1609 0.889427H38.2208C58.7489 0.916107 75.373 15.749 75.373 34.0323C75.373 52.3245 58.7489 67.1574 38.2208 67.1841H38.1609C17.6329 67.1574 0.998741 52.3245 0.998741 34.0323Z" fill="#FDE198"/>
<path d="M38.1605 5.34058e-05C59.2577 0.0267334 76.3711 15.2954 76.3711 34.0322C76.3711 52.7779 59.2577 68.0466 38.2204 68.0732C17.1133 68.0466 -0.000106812 52.7779 -0.000106812 34.0322C-0.000106812 24.935 3.97372 16.3892 11.1925 9.96871C18.3913 3.55711 27.9664 0.0178375 38.1605 5.34058e-05ZM38.1605 66.2947C58.1494 66.268 74.3742 51.7997 74.3742 34.0322C74.3742 16.2736 58.1594 1.80526 38.2204 1.77858C28.5056 1.79636 19.4297 5.1489 12.6103 11.2315C5.77092 17.314 1.99679 25.4152 1.99679 34.0322C1.99679 51.7908 18.2216 66.268 38.1605 66.2947Z" fill="white" fill-opacity="0.4"/>
</svg>
