<svg width="268" height="135" viewBox="0 0 268 135" fill="none" xmlns="http://www.w3.org/2000/svg">
<mask id="path-1-inside-1_776_4976" fill="white">
<path d="M41.9998 134.67C41.9998 83.49 83.4898 42 134.67 42C185.85 42 227.34 83.49 227.34 134.67"/>
</mask>
<path d="M41.9998 134.67C41.9998 83.49 83.4898 42 134.67 42C185.85 42 227.34 83.49 227.34 134.67" fill="#FFE031"/>
<path d="M42.9998 134.67C42.9998 84.0423 84.0421 43 134.67 43V41C82.9376 41 40.9998 82.9377 40.9998 134.67H42.9998ZM134.67 43C185.298 43 226.34 84.0423 226.34 134.67H228.34C228.34 82.9377 186.402 41 134.67 41V43Z" fill="#FDE198" mask="url(#path-1-inside-1_776_4976)"/>
<path d="M134.67 31.3501C191.73 31.3501 237.99 77.6101 237.99 134.67" stroke="#FDE198" stroke-miterlimit="10"/>
<path d="M31.3499 134.67C31.3499 77.6101 77.6099 31.3501 134.67 31.3501" stroke="#FDE198" stroke-width="4" stroke-miterlimit="10"/>
<path d="M134.67 31.3501C191.73 31.3501 237.99 77.6101 237.99 134.67" stroke="#FDE198" stroke-miterlimit="10"/>
<path d="M31.3499 134.67C31.3499 77.6101 77.6099 31.3501 134.67 31.3501" stroke="#FDE198" stroke-width="4" stroke-miterlimit="10"/>
<path d="M134.67 21.8101C197 21.8101 247.53 72.34 247.53 134.67" stroke="#FDE198" stroke-miterlimit="10"/>
<path d="M21.8099 134.67C21.8099 72.34 72.3399 21.8101 134.67 21.8101" stroke="#FDE198" stroke-width="4" stroke-miterlimit="10"/>
<path d="M134.67 21.8101C197 21.8101 247.53 72.34 247.53 134.67" stroke="#FDE198" stroke-miterlimit="10"/>
<path d="M21.8099 134.67C21.8099 72.34 72.3399 21.8101 134.67 21.8101" stroke="#FDE198" stroke-width="4" stroke-miterlimit="10"/>
<path d="M134.67 12.3101C202.25 12.3101 257.03 67.09 257.03 134.67" stroke="#FDE198" stroke-miterlimit="10"/>
<path d="M12.3099 134.67C12.3099 67.09 67.0899 12.3101 134.67 12.3101" stroke="#FDE198" stroke-width="4" stroke-miterlimit="10"/>
<path d="M134.67 2C207.94 2 267.34 61.4 267.34 134.67" stroke="#FDE198" stroke-miterlimit="10"/>
<path d="M1.99991 134.67C1.99991 61.4 61.3999 2 134.67 2" stroke="#FDE198" stroke-width="4" stroke-miterlimit="10"/>
</svg>
