<svg width="48" height="48" viewBox="0 0 48 48" fill="none" xmlns="http://www.w3.org/2000/svg">
<path d="M14.5299 26.394C14.3173 27.7471 15.268 28.6862 16.4321 29.1542C20.8948 30.9486 27.1052 30.9486 31.5679 29.1542C32.732 28.6862 33.6827 27.7471 33.4701 26.394C33.3394 25.5625 32.6932 24.8701 32.2144 24.194C31.5873 23.2975 31.525 22.3197 31.5249 21.2794C31.5249 17.2591 28.1559 14 24 14C19.8441 14 16.4751 17.2591 16.4751 21.2794C16.475 22.3197 16.4127 23.2975 15.7856 24.194C15.3068 24.8701 14.6606 25.5625 14.5299 26.394Z" stroke="#F8F8FF" stroke-width="1.5" stroke-linecap="round" stroke-linejoin="round"/>
<path d="M21 33C21.7961 33.6219 22.8475 34 24 34C25.1525 34 26.2039 33.6219 27 33" stroke="#F8F8FF" stroke-width="1.5" stroke-linecap="round" stroke-linejoin="round"/>
</svg>
