<svg width="500" height="552" viewBox="0 0 500 552" fill="none" xmlns="http://www.w3.org/2000/svg">
<g opacity="0.4">
<path d="M364.247 236.731C409.75 257.182 431.406 313.826 412.539 363.283C393.672 412.741 341.463 436.189 295.96 415.739C250.457 395.289 228.801 338.644 247.668 289.186C266.535 239.729 318.744 216.281 364.247 236.731Z" fill="url(#paint0_linear_675_4720)" fill-opacity="0.4" stroke="white"/>
<path d="M82.8907 453.877C128.67 474.452 181.148 450.849 200.104 401.16C219.059 351.47 197.314 294.51 151.535 273.935C105.755 253.361 53.2771 276.963 34.3216 326.653C15.3661 376.343 37.1112 433.303 82.8907 453.877Z" stroke="white" stroke-miterlimit="10"/>
<path d="M347.874 295.708C393.654 316.282 446.132 292.68 465.087 242.99C484.043 193.301 462.297 136.34 416.518 115.766C370.739 95.1912 318.26 118.794 299.305 168.483C280.35 218.173 302.095 275.133 347.874 295.708Z" stroke="white" stroke-miterlimit="10"/>
<path d="M224.24 147.54C235.376 152.545 240.707 166.429 236.071 178.583C231.434 190.738 218.62 196.467 207.485 191.462C196.349 186.458 191.018 172.574 195.655 160.419C200.292 148.265 213.104 142.535 224.24 147.54Z" fill="url(#paint1_linear_675_4720)" fill-opacity="0.4" stroke="white"/>
<path d="M243.158 315.666C273.809 329.442 288.409 367.607 275.692 400.944C262.974 434.28 227.791 450.072 197.14 436.296C166.489 422.521 151.889 384.356 164.606 351.019C177.323 317.682 212.507 301.891 243.158 315.666Z" fill="url(#paint2_linear_675_4720)" fill-opacity="0.4" stroke="white"/>
<path d="M357.985 164.438L339.791 172.617" stroke="white" stroke-miterlimit="10"/>
<path d="M352.659 178.4L345.117 158.655" stroke="white" stroke-miterlimit="10"/>
<path d="M350.744 183.421L332.548 191.604" stroke="white" stroke-miterlimit="10"/>
<path d="M345.416 197.388L337.876 177.637" stroke="white" stroke-miterlimit="10"/>
<path d="M343.502 202.403L325.306 210.587" stroke="white" stroke-miterlimit="10"/>
<path d="M338.174 216.37L330.634 196.62" stroke="white" stroke-miterlimit="10"/>
</g>
<defs>
<linearGradient id="paint0_linear_675_4720" x1="295.781" y1="416.206" x2="374.595" y2="240.84" gradientUnits="userSpaceOnUse">
<stop stop-color="#40A4FF"/>
<stop offset="1" stop-color="#311996"/>
</linearGradient>
<linearGradient id="paint1_linear_675_4720" x1="207.307" y1="191.929" x2="226.954" y2="148.213" gradientUnits="userSpaceOnUse">
<stop stop-color="#40A4FF"/>
<stop offset="1" stop-color="#311996"/>
</linearGradient>
<linearGradient id="paint2_linear_675_4720" x1="164.151" y1="350.812" x2="278.685" y2="394.504" gradientUnits="userSpaceOnUse">
<stop stop-color="#E12179"/>
<stop offset="1" stop-color="#311996"/>
</linearGradient>
</defs>
</svg>
