<svg width="302" height="364" viewBox="0 0 302 364" fill="none" xmlns="http://www.w3.org/2000/svg">
<path d="M277.351 197.79C280.402 194.515 280.429 189.174 277.411 185.863C274.393 182.551 269.473 182.521 266.422 185.797C263.371 189.073 263.344 194.413 266.362 197.725C269.38 201.037 274.3 201.066 277.351 197.79Z" fill="url(#paint0_linear_675_4705)" fill-opacity="0.4"/>
<path d="M213.205 283.121C248.432 245.302 248.744 183.646 213.9 145.409C179.056 107.173 122.252 106.835 87.0244 144.655C51.7968 182.475 51.4857 244.131 86.3295 282.367C121.173 320.604 177.977 320.941 213.205 283.121Z" fill="url(#paint1_linear_675_4705)" fill-opacity="0.4"/>
<path d="M189.829 154.534C188.728 146.719 181.999 141.352 174.799 142.547C167.599 143.741 162.655 151.045 163.755 158.86C164.856 166.675 171.585 172.042 178.785 170.847C185.985 169.653 190.929 162.349 189.829 154.534Z" stroke="#F8F0E4" stroke-miterlimit="10"/>
<path d="M116.029 176.484C139.828 150.934 140.038 109.281 116.498 83.4494C92.9588 57.6179 54.5836 57.3898 30.7848 82.9399C6.98607 108.49 6.77589 150.143 30.3154 175.974C53.8549 201.806 92.2301 202.034 116.029 176.484Z" fill="url(#paint2_linear_675_4705)" fill-opacity="0.4"/>
<path d="M234.329 263.433L254.022 263.554" stroke="white" stroke-miterlimit="10"/>
<path d="M244.228 252.806L244.123 274.181" stroke="white" stroke-miterlimit="10"/>
<path d="M247.787 248.985L267.483 249.102" stroke="white" stroke-miterlimit="10"/>
<path d="M257.689 238.354L257.581 259.733" stroke="white" stroke-miterlimit="10"/>
<path d="M261.245 234.537L280.941 234.654" stroke="white" stroke-miterlimit="10"/>
<path d="M271.147 223.906L271.039 245.284" stroke="white" stroke-miterlimit="10"/>
<defs>
<linearGradient id="paint0_linear_675_4705" x1="277.41" y1="185.861" x2="265.469" y2="196.743" gradientUnits="userSpaceOnUse">
<stop stop-color="#40A4FF"/>
<stop offset="1" stop-color="#311996"/>
</linearGradient>
<linearGradient id="paint1_linear_675_4705" x1="213.202" y1="283.121" x2="76.5836" y2="155.868" gradientUnits="userSpaceOnUse">
<stop stop-color="#E12179"/>
<stop offset="1" stop-color="#311996"/>
</linearGradient>
<linearGradient id="paint2_linear_675_4705" x1="116.027" y1="176.485" x2="23.727" y2="90.5119" gradientUnits="userSpaceOnUse">
<stop stop-color="#E12179"/>
<stop offset="1" stop-color="#311996"/>
</linearGradient>
</defs>
</svg>
